<svg aria-hidden="true" style="position: absolute; width: 0; height: 0; overflow: hidden;" version="1.1" xmlns="http://www.w3.org/2000/svg" xmlns:xlink="http://www.w3.org/1999/xlink">
  <defs>
    <symbol id="feedback-icon-filles-star" viewBox="0 0 32 32">
      <title>filled-star</title>
      <path d="M8.688 19.097l-1.987 8.603c-0.062 0.261-0.043 0.533 0.053 0.783s0.265 0.465 0.485 0.617c0.22 0.152 0.481 0.235 0.749 0.236s0.53-0.078 0.752-0.227l7.26-4.84 7.26 4.84c0.227 0.151 0.495 0.228 0.768 0.222s0.537-0.095 0.757-0.256c0.22-0.161 0.386-0.385 0.475-0.642s0.097-0.536 0.023-0.799l-2.439-8.533 6.048-5.443c0.194-0.174 0.332-0.402 0.398-0.654s0.056-0.518-0.027-0.765-0.238-0.464-0.444-0.624c-0.206-0.16-0.454-0.256-0.714-0.277l-7.601-0.605-3.289-7.281c-0.105-0.234-0.275-0.434-0.491-0.573s-0.467-0.214-0.724-0.214c-0.257 0-0.508 0.074-0.724 0.214s-0.386 0.339-0.491 0.573l-3.289 7.281-7.601 0.604c-0.255 0.020-0.5 0.114-0.703 0.269s-0.358 0.366-0.445 0.607c-0.087 0.241-0.103 0.502-0.046 0.752s0.185 0.478 0.369 0.656l5.619 5.476z"></path>
    </symbol>
    <symbol id="burger-icon" viewBox="0 0 32 32">
      <title>burger</title>
      <path d="M5.333 8h21.333v2.667h-21.333v-2.667zM5.333 14.667h21.333v2.667h-21.333v-2.667zM5.333 21.333h21.333v2.667h-21.333v-2.667z"></path>
    </symbol>
    <symbol id="x-icon-close" viewBox="0 0 32 32">
      <title>close-x</title>
      <path d="M21.589 8.459l-5.657 5.656-5.656-5.656-1.885 1.885 5.656 5.656-5.656 5.656 1.885 1.885 5.656-5.656 5.657 5.656 1.885-1.885-5.656-5.656 5.656-5.656-1.885-1.885z"></path>
    </symbol>
    <symbol id="youtube-icon" viewBox="0 0 32 32">
      <title>youtube</title>
      <path d="M28.791 9.604c-0.152-0.563-0.449-1.077-0.861-1.49s-0.925-0.711-1.489-0.864c-2.088-0.573-10.441-0.583-10.441-0.583s-8.352-0.009-10.441 0.539c-0.563 0.16-1.075 0.462-1.487 0.878s-0.711 0.929-0.867 1.493c-0.551 2.088-0.556 6.419-0.556 6.419s-0.005 4.352 0.541 6.419c0.307 1.143 1.207 2.045 2.351 2.353 2.109 0.573 10.44 0.583 10.44 0.583s8.353 0.009 10.441-0.537c0.563-0.153 1.077-0.45 1.49-0.862s0.712-0.925 0.866-1.488c0.552-2.087 0.556-6.416 0.556-6.416s0.027-4.353-0.543-6.441zM13.328 20.007l0.007-8 6.943 4.007-6.949 3.993z"></path>
    </symbol>
    <symbol id="linkedIn-icon" viewBox="0 0 32 32">
      <title>linkedin</title>
      <path d="M25.75 4h-19.5c-1.237 0-2.25 1.013-2.25 2.25v19.5c0 1.237 1.013 2.25 2.25 2.25h19.5c1.237 0 2.25-1.013 2.25-2.25v-19.5c0-1.237-1.013-2.25-2.25-2.25zM13 23.5h-3v-10.5h3v10.5zM11.5 11.5c-0.829 0-1.5-0.671-1.5-1.5s0.671-1.5 1.5-1.5c0.829 0 1.5 0.671 1.5 1.5s-0.671 1.5-1.5 1.5zM23.5 23.5h-3v-6c0-0.829-0.671-1.5-1.5-1.5s-1.5 0.671-1.5 1.5v6h-3v-10.5h3v1.861c0.619-0.848 1.565-1.861 2.625-1.861 1.866 0 3.375 1.679 3.375 3.75v6.75z"></path>
    </symbol>
    <symbol id="feedback-icon-empty-star" viewBox="0 0 32 32">
      <title>empty-star</title>
      <path d="M8.688 19.097l-1.987 8.603c-0.062 0.261-0.043 0.533 0.053 0.783s0.265 0.465 0.485 0.617c0.22 0.152 0.481 0.235 0.749 0.236s0.53-0.078 0.752-0.227l7.26-4.84 7.26 4.84c0.227 0.151 0.495 0.228 0.768 0.222s0.537-0.095 0.757-0.256c0.22-0.161 0.386-0.385 0.475-0.642s0.097-0.536 0.023-0.799l-2.439-8.533 6.048-5.443c0.194-0.174 0.332-0.402 0.398-0.654s0.056-0.518-0.027-0.765-0.238-0.464-0.444-0.624c-0.206-0.16-0.454-0.256-0.714-0.277l-7.601-0.605-3.289-7.281c-0.105-0.234-0.275-0.434-0.491-0.573s-0.467-0.214-0.724-0.214c-0.257 0-0.508 0.074-0.724 0.214s-0.386 0.339-0.491 0.573l-3.289 7.281-7.601 0.604c-0.255 0.020-0.5 0.114-0.703 0.269s-0.358 0.366-0.445 0.607c-0.087 0.241-0.103 0.502-0.046 0.752s0.185 0.478 0.369 0.656l5.619 5.476zM12.492 13.329c0.238-0.019 0.467-0.101 0.662-0.239s0.35-0.325 0.448-0.543l2.399-5.308 2.399 5.308c0.098 0.218 0.252 0.405 0.448 0.543s0.424 0.22 0.662 0.239l5.296 0.42-4.361 3.925c-0.379 0.341-0.529 0.867-0.391 1.357l1.671 5.847-4.981-3.321c-0.219-0.147-0.476-0.225-0.739-0.225s-0.521 0.078-0.739 0.225l-5.205 3.471 1.4-6.061c0.051-0.223 0.044-0.455-0.020-0.675s-0.184-0.419-0.348-0.579l-4.051-3.949 5.453-0.435z"></path>
    </symbol>
    <symbol id="instagram-icon" viewBox="0 0 32 32">
      <title>instagram</title>
      <path d="M15.998 6.161c3.206 0 3.585 0.014 4.846 0.071 1.172 0.052 1.804 0.248 2.226 0.412 0.558 0.216 0.961 0.478 1.378 0.895 0.422 0.422 0.679 0.82 0.9 1.378 0.164 0.422 0.361 1.059 0.412 2.226 0.056 1.266 0.071 1.645 0.071 4.847s-0.014 3.585-0.071 4.847c-0.052 1.172-0.248 1.804-0.412 2.227-0.216 0.558-0.478 0.961-0.895 1.377-0.422 0.422-0.82 0.679-1.378 0.9-0.422 0.164-1.060 0.361-2.226 0.412-1.266 0.056-1.645 0.071-4.847 0.071s-3.585-0.014-4.847-0.071c-1.172-0.052-1.804-0.248-2.226-0.412-0.558-0.216-0.961-0.478-1.378-0.895-0.422-0.422-0.679-0.82-0.9-1.378-0.164-0.422-0.361-1.060-0.412-2.226-0.056-1.266-0.071-1.645-0.071-4.847s0.014-3.585 0.071-4.847c0.052-1.172 0.248-1.804 0.412-2.226 0.216-0.558 0.478-0.961 0.895-1.378 0.422-0.422 0.82-0.679 1.378-0.9 0.422-0.164 1.059-0.361 2.226-0.412 1.261-0.056 1.641-0.071 4.847-0.071h0.001zM15.998 4.001c-3.258 0-3.665 0.014-4.945 0.071-1.275 0.056-2.151 0.262-2.91 0.558-0.792 0.309-1.462 0.717-2.127 1.387-0.67 0.666-1.078 1.336-1.387 2.123-0.295 0.764-0.502 1.636-0.558 2.91-0.056 1.285-0.071 1.692-0.071 4.949s0.014 3.665 0.071 4.945c0.056 1.275 0.262 2.151 0.558 2.91 0.31 0.792 0.717 1.462 1.387 2.127 0.665 0.665 1.336 1.078 2.123 1.383 0.764 0.295 1.636 0.502 2.91 0.558 1.279 0.056 1.687 0.071 4.945 0.071s3.666-0.014 4.945-0.071c1.275-0.056 2.151-0.262 2.91-0.558 0.787-0.305 1.458-0.717 2.123-1.383s1.078-1.336 1.383-2.123c0.295-0.764 0.502-1.635 0.558-2.91 0.056-1.279 0.071-1.687 0.071-4.945s-0.014-3.665-0.071-4.945c-0.056-1.275-0.262-2.151-0.558-2.91-0.295-0.797-0.703-1.467-1.373-2.133-0.665-0.665-1.336-1.078-2.123-1.383-0.764-0.295-1.635-0.502-2.91-0.558-1.284-0.061-1.692-0.075-4.949-0.075l-0.001 0.001z"></path>
      <path d="M15.998 9.836c-3.402 0-6.163 2.76-6.163 6.163s2.76 6.163 6.163 6.163c3.403 0 6.163-2.76 6.163-6.163s-2.76-6.163-6.163-6.163zM15.998 19.997c-2.208 0-3.998-1.79-3.998-3.998s1.79-3.998 3.998-3.998c2.208 0 3.998 1.79 3.998 3.998s-1.79 3.998-3.998 3.998z"></path>
      <path d="M23.843 9.592c0 0.795-0.644 1.439-1.439 1.439s-1.439-0.644-1.439-1.439 0.644-1.439 1.439-1.439c0.795 0 1.439 0.644 1.439 1.439z"></path>
    </symbol>
    <symbol id="logo-icon" viewBox="0 0 28 32">
      <title>logo</title>
      <path d="M13.96 0c-0.17 0-0.349 0-0.517 0.020-1.952 0.163-3.745 0.992-5.022 2.502-1.39 1.644-1.726 3.375-1.71 5.468l-3.718-0.006c-0.167-0-0.339-0.005-0.513-0.010-0.485-0.013-0.989-0.027-1.443 0.056-0.274 0.050-0.513 0.184-0.706 0.384-0.337 0.351-0.346 0.795-0.324 1.249 0.035 0.717 0.096 1.434 0.158 2.151 0.033 0.39 0.067 0.78 0.096 1.169l0.617 7.974 0.3 3.851c0.015 0.19 0.027 0.382 0.038 0.575 0.042 0.689 0.085 1.388 0.267 2.048 0.314 1.121 0.937 2.131 1.798 2.916 0.752 0.683 1.661 1.17 2.646 1.418 0.833 0.201 1.802 0.178 2.711 0.157 0.271-0.006 0.536-0.013 0.791-0.013l9.377 0c0.239 0 0.485 0.006 0.734 0.012 0.807 0.019 1.649 0.039 2.404-0.137 1.061-0.247 2.136-0.83 2.911-1.598 0.721-0.715 1.297-1.67 1.549-2.657 0.193-0.755 0.241-1.583 0.288-2.386 0.015-0.259 0.030-0.515 0.050-0.766l0.41-5.281 0.512-6.484c0.025-0.32 0.057-0.644 0.089-0.968 0.070-0.703 0.14-1.411 0.138-2.106-0.001-0.427-0.091-0.826-0.398-1.144-0.211-0.219-0.555-0.325-0.847-0.373-0.437-0.071-0.916-0.059-1.38-0.046-0.171 0.005-0.341 0.009-0.505 0.009-1.169-0.002-2.339 0.002-3.508 0.012l-0.050 0.001c0.027-2.241-0.471-4.164-2.082-5.802-1.346-1.395-3.198-2.186-5.136-2.194l-0.024 0zM21.047 12.781l0.063 0.004c0.002 0.004 0.003 0.008 0.005 0.012 0.001 0.002 0.002 0.004 0.002 0.006 0.003 0.007 0.005 0.012 0.007 0.017l0.003 0.006c0.012 0.026 0.014 0.031 0.013 0.073-0.020 2.748-0.756 6.285-2.706 8.297-1.806 1.863-4.61 2.778-7.167 2.829 1.191-2.24 3.105-4.365 5.080-5.943 0.305-0.244 0.625-0.464 0.945-0.685 0.206-0.142 0.412-0.284 0.614-0.432 0.196-0.144 0.461-0.34 0.489-0.603 0.026-0.242-0.103-0.43-0.255-0.603-0.212-0.123-0.368-0.174-0.61-0.103-0.344 0.101-0.691 0.356-1.004 0.586-0.083 0.061-0.164 0.12-0.241 0.174-2.532 1.793-4.635 4.123-6.16 6.824-0.051-2.198 0.449-4.039 1.797-5.806 2.023-2.653 5.894-4.212 9.126-4.652zM1.394 9.361l25.117-0c-0.089 0.846-0.147 1.7-0.205 2.552-0.032 0.475-0.064 0.95-0.102 1.422l-0.676 8.475-0.253 3.123c-0.011 0.136-0.022 0.272-0.032 0.408-0.041 0.539-0.082 1.083-0.186 1.61-0.107 0.541-0.314 1.012-0.595 1.484-0.108 0.164-0.226 0.323-0.352 0.474-0.728 0.87-1.923 1.518-3.059 1.604-0.618 0.047-1.254 0.035-1.884 0.023-0.273-0.005-0.544-0.010-0.813-0.010l-9.358 0c-0.2 0-0.404 0.004-0.609 0.009-0.629 0.013-1.273 0.026-1.877-0.078-0.793-0.138-1.534-0.488-2.145-1.011-0.732-0.617-1.257-1.443-1.505-2.368-0.17-0.613-0.212-1.266-0.253-1.907-0.010-0.161-0.021-0.321-0.033-0.48l-0.247-3.178-0.936-12.152zM21.604 11.309l-0.019 0.002c-3.813 0.441-8.153 2.009-10.618 5.098-1.584 1.985-2.449 4.567-2.164 7.109 0.063 0.558 0.189 1.092 0.371 1.623-0.021 0.053-0.046 0.116-0.074 0.188-0.313 0.786-1.040 2.614-0.787 3.155 0.073 0.156 0.222 0.261 0.384 0.312 0.067 0.021 0.134 0.033 0.203 0.041 0.214-0.035 0.411-0.079 0.54-0.27 0.138-0.206 0.279-0.699 0.4-1.122 0.058-0.201 0.111-0.386 0.156-0.516 0.157-0.445 0.335-0.883 0.512-1.32l0.002-0.005c0.021-0.051 0.042-0.102 0.062-0.154 3.144 0.009 6.502-0.975 8.776-3.219 2.544-2.51 3.184-6.558 3.189-9.983 0-0.27-0.018-0.591-0.216-0.797-0.121-0.127-0.304-0.165-0.474-0.162-0.082 0.002-0.164 0.011-0.245 0.019zM13.654 1.374c0.122-0.008 0.244-0.014 0.366-0.014 1.493 0.010 2.989 0.678 4.038 1.731 1.429 1.433 1.721 2.954 1.724 4.899l-11.629 0.005c-0.047-1.672 0.222-3.199 1.319-4.519 1.054-1.268 2.558-1.957 4.181-2.102z"></path>
    </symbol>
  </defs>
</svg>